<?xml version="1.0" standalone="no"?>
<!DOCTYPE svg PUBLIC "-//W3C//DTD SVG 20010904//EN"
 "http://www.w3.org/TR/2001/REC-SVG-20010904/DTD/svg10.dtd">
<svg version="1.0" xmlns="http://www.w3.org/2000/svg"
 width="240.000000pt" height="240.000000pt" viewBox="0 0 240.000000 240.000000"
 preserveAspectRatio="xMidYMid meet">
<metadata>
Created by potrace 1.11, written by Peter Selinger 2001-2013
</metadata>
<g transform="translate(0.000000,240.000000) scale(0.100000,-0.100000)"
fill="#000000" stroke="none">
<path d="M1 2215 c2 -102 6 -185 9 -185 4 0 12 -39 19 -87 17 -122 52 -196 82
-177 8 5 8 9 -1 14 -30 19 -33 181 -6 293 l12 48 40 -31 c49 -39 89 -85 114
-131 l19 -36 -40 -147 c-22 -82 -38 -150 -36 -152 2 -2 16 40 31 94 55 190 74
225 105 189 17 -22 1 -115 -37 -207 -73 -178 -154 -408 -174 -495 -102 -455
-133 -673 -126 -905 3 -85 1 -144 -3 -130 -4 14 -7 19 -8 12 -1 -19 29 -122
46 -154 9 -19 21 -28 37 -28 l23 0 6 182 c6 162 12 220 32 306 l5 22 39 -19
38 -20 7 -118 c9 -138 18 -193 47 -285 13 -42 27 -68 36 -68 11 0 11 4 2 21
-6 12 -15 35 -20 51 -8 29 -8 30 14 14 12 -9 49 -30 82 -48 56 -30 68 -32 179
-36 106 -4 118 -2 113 12 -4 9 7 36 24 65 17 27 33 67 36 90 5 38 7 40 32 34
41 -9 41 -9 21 -80 -10 -37 -16 -71 -14 -75 3 -4 -14 -11 -36 -14 -26 -4 -38
-10 -32 -16 9 -9 70 5 132 29 12 5 11 1 -2 -14 -26 -29 -23 -33 30 -33 44 0
49 3 84 46 20 25 57 61 82 80 44 33 49 35 113 31 l68 -3 -68 -2 c-83 -2 -125
-29 -163 -104 l-24 -48 92 0 c73 0 96 4 112 17 20 17 20 17 7 0 -13 -16 2 -17
282 -17 l295 0 40 68 c22 37 74 135 115 218 42 83 90 167 107 185 51 55 137
190 181 284 40 86 109 276 109 302 0 7 -11 15 -25 19 -14 3 -25 7 -25 9 0 7
102 241 107 245 15 13 -12 -64 -49 -143 -35 -74 -40 -90 -27 -98 7 -5 17 -9
20 -9 12 0 89 291 89 336 0 55 -23 57 -28 3 -2 -30 -92 -262 -99 -256 -1 2 6
32 17 68 38 124 18 103 -25 -26 -46 -143 -131 -325 -193 -420 -50 -76 -128
-150 -227 -215 -102 -66 -161 -83 -278 -78 -78 2 -102 8 -157 34 -36 18 -81
45 -100 62 l-35 30 80 6 c216 16 314 27 360 40 50 15 145 69 201 114 l29 23
-40 -20 c-67 -32 -176 -61 -262 -69 -46 -4 -83 -7 -83 -6 0 2 24 19 52 38 87
58 164 133 221 214 29 42 79 113 111 157 85 117 174 307 244 517 62 184 212
717 212 750 0 16 -9 18 -69 18 l-69 0 -22 -37 c-37 -63 -177 -237 -211 -262
-18 -13 -39 -21 -50 -18 -16 4 -18 3 -9 -8 9 -11 -4 -23 -67 -59 -42 -25 -81
-46 -86 -46 -11 0 31 53 116 147 63 69 111 133 136 181 22 42 4 22 -33 -35
-20 -32 -54 -78 -76 -103 l-41 -45 45 85 c25 47 56 110 70 141 l24 56 -138 2
c-125 2 -139 0 -143 -16 -4 -17 -5 -17 -6 0 -1 12 -10 17 -34 17 -30 0 -36 -5
-52 -40 -10 -23 -23 -43 -27 -47 -5 -3 0 13 11 36 12 22 21 43 21 46 0 3 -38
5 -85 5 -47 0 -85 -4 -85 -8 0 -4 -14 -23 -31 -42 l-30 -35 25 36 c14 20 26
39 26 42 0 4 -166 7 -370 7 l-370 0 1 -32 c1 -31 1 -31 9 -8 12 42 24 -3 12
-47 -7 -28 -10 -32 -11 -14 -1 19 -4 21 -16 11 -12 -10 -15 -4 -21 39 l-7 51
-123 0 c-68 0 -124 -1 -125 -2 0 -2 -6 -37 -14 -78 l-14 -75 5 78 6 77 -39 0
c-22 0 -44 -5 -51 -12 -9 -9 -12 -9 -12 0 0 7 -7 12 -15 12 -12 0 -15 -15 -15
-78 0 -44 -3 -121 -7 -171 -10 -146 -27 -85 -26 96 1 141 -1 153 -18 153 -15
0 -16 -4 -8 -32 10 -38 10 -131 0 -168 -6 -21 -8 -16 -14 28 -3 29 -13 59 -21
67 -8 9 -18 35 -22 60 l-6 45 -110 0 -110 0 3 -185z m1544 145 c-9 -16 -18
-30 -21 -30 -2 0 2 14 11 30 9 17 18 30 21 30 2 0 -2 -13 -11 -30z m425 -17
c-11 -17 -11 -17 -6 0 3 10 6 24 7 30 0 9 2 9 5 0 3 -7 0 -20 -6 -30z m26 -20
c-8 -15 -15 -25 -16 -21 0 12 23 58 27 54 3 -2 -2 -17 -11 -33z m-240 -18 c-3
-13 -10 -35 -16 -49 -9 -25 -10 -25 -39 -8 -16 9 -28 18 -26 21 3 2 15 -3 29
-12 23 -16 24 -16 36 29 13 46 27 63 16 19z m184 -34 c-28 -56 -35 -52 -8 4
12 24 23 43 26 41 2 -2 -6 -22 -18 -45z m-550 -36 c-41 -41 -78 -75 -82 -75
-8 0 143 149 152 150 2 0 -29 -34 -70 -75z m105 35 c-9 -16 -18 -30 -21 -30
-2 0 2 14 11 30 9 17 18 30 21 30 2 0 -2 -13 -11 -30z m151 21 c-4 -5 0 -12 6
-14 8 -3 6 -6 -4 -6 -18 -1 -24 10 -11 22 9 10 15 8 9 -2z m-937 -58 c7 -21
15 -86 18 -145 4 -74 10 -111 19 -119 19 -16 18 -50 0 -43 -12 5 -15 -8 -15
-70 0 -114 26 -99 50 30 l13 71 35 -58 c40 -65 79 -111 131 -153 44 -35 18
-23 -31 15 -19 15 -48 46 -64 69 -37 53 -54 39 -31 -26 37 -109 95 -174 207
-232 71 -37 145 -44 156 -15 4 9 1 19 -5 21 -22 7 -12 22 23 36 38 16 47 36
15 36 -31 0 -43 36 -38 112 3 38 8 71 11 74 3 3 34 -3 70 -14 60 -18 66 -18
82 -3 9 9 0 -11 -19 -43 -48 -80 -48 -92 2 -58 54 37 58 38 39 9 -20 -31 -59
-128 -54 -134 2 -2 20 28 40 66 62 119 56 113 109 107 26 -3 58 -11 70 -18 13
-7 28 -14 33 -14 6 -1 15 -2 20 -3 6 -1 16 -5 24 -10 12 -8 9 -14 -16 -35 -17
-14 -43 -51 -58 -83 -16 -32 -32 -66 -37 -77 -8 -15 -3 -24 26 -48 20 -16 36
-34 36 -39 0 -13 -31 -11 -61 5 l-26 13 -11 -76 c-14 -102 -6 -164 25 -195 33
-33 86 -49 140 -43 97 11 200 160 212 306 l6 76 29 -49 c16 -26 33 -70 38 -97
8 -43 6 -55 -12 -84 -12 -19 -28 -39 -37 -43 -9 -5 -13 -19 -11 -33 3 -22 10
-18 86 56 45 43 85 89 88 101 3 12 -4 43 -15 69 -21 48 -27 69 -13 49 5 -8 13
-5 26 7 19 19 19 19 -7 19 -16 0 -28 7 -32 18 -3 11 -23 33 -45 51 -49 39 -50
51 -7 51 41 1 107 31 177 81 55 40 55 40 15 4 -22 -20 -70 -50 -107 -68 -64
-30 -88 -57 -52 -57 10 0 14 -6 11 -14 -3 -8 1 -20 8 -26 11 -10 24 -6 61 14
26 14 48 26 51 26 2 0 2 -30 -1 -67 -9 -143 -105 -319 -323 -592 -16 -19 -21
-31 -13 -27 45 23 -129 -129 -187 -163 -91 -54 -225 -103 -290 -105 -56 -2
-77 -11 -48 -22 9 -4 38 -27 63 -51 46 -45 114 -84 166 -97 16 -4 25 -11 20
-15 -17 -17 -156 -61 -192 -62 -21 -1 33 -16 128 -35 137 -29 180 -34 255 -31
101 5 217 42 248 78 22 27 21 22 -3 -45 -22 -57 -35 -74 -66 -81 -11 -3 -53
-14 -94 -25 -161 -42 -507 -73 -725 -66 -226 8 -352 46 -401 121 -9 14 -29 73
-45 132 -39 146 -45 160 -101 225 -53 62 -59 90 -33 156 20 49 10 77 -50 144
-44 49 -44 50 -30 78 22 42 18 93 -14 205 -17 60 -30 132 -32 179 l-4 79 45
17 c25 10 79 30 120 45 79 29 220 110 220 127 0 5 4 7 9 3 5 -3 13 0 17 6 4 8
3 9 -4 5 -7 -4 -12 -2 -12 5 0 7 -3 10 -6 6 -14 -13 -37 27 -41 71 -2 26 -8
56 -13 67 -5 11 -11 29 -13 40 -3 11 -3 0 -1 -25 3 -34 1 -41 -8 -32 -20 20
21 422 43 422 3 0 11 -17 18 -37z m1500 -5 c-1 -31 -1 -31 -8 -8 -5 14 -6 28
-4 33 9 15 13 6 12 -25z m-745 -10 c-21 -36 -85 -128 -89 -128 -3 0 16 32 41
70 26 39 49 70 51 70 2 0 1 -6 -3 -12z m204 -9 c27 -8 42 -18 42 -28 0 -12 -2
-13 -9 -3 -4 7 -28 19 -54 27 l-46 14 -40 -53 c-22 -30 -65 -81 -97 -115 l-56
-61 38 0 c22 -1 50 -8 64 -16 15 -9 17 -12 5 -8 -11 4 -44 10 -72 12 l-53 4
70 76 c39 42 85 98 103 124 20 29 38 46 47 43 8 -2 34 -9 58 -16z m260 -21
c-16 -30 -31 -44 -48 -46 -13 -2 -31 -14 -39 -25 -8 -12 -40 -48 -70 -79 -30
-32 -50 -58 -45 -58 6 0 16 6 23 13 11 10 12 9 6 -2 -4 -7 -27 -22 -51 -33
-50 -22 -57 -37 -16 -39 24 -2 24 -2 4 -6 -13 -3 -29 1 -37 7 -8 6 -19 9 -25
5 -6 -3 22 -31 62 -62 40 -31 88 -69 106 -85 37 -32 67 -35 102 -11 22 15 24
15 12 1 -8 -10 -29 -22 -48 -28 -33 -11 -37 -10 -69 23 -39 41 -105 95 -158
130 l-38 26 30 15 c59 31 154 119 213 200 70 94 80 106 49 54 -19 -32 -20 -38
-7 -38 9 0 25 18 36 40 11 22 23 40 26 40 3 0 -5 -19 -18 -42z m221 -9 c-23
-28 -59 -65 -80 -81 l-39 -31 40 -43 c22 -24 40 -46 40 -50 0 -3 -19 15 -43
42 l-43 47 80 83 c45 45 83 83 84 83 2 1 -15 -22 -39 -50z m-1250 15 l96 -7 1
-126 c1 -133 16 -217 54 -291 14 -27 16 -40 8 -40 -29 0 -101 46 -140 89 -80
89 -177 298 -178 383 0 14 5 15 31 8 17 -5 75 -12 128 -16z m172 -168 c-2 -98
2 -185 8 -217 6 -28 9 -54 6 -57 -2 -3 -16 19 -29 49 -26 57 -46 181 -46 284
0 86 7 105 39 105 l26 0 -4 -164z m154 157 c42 -5 46 -8 30 -19 -10 -7 -15
-20 -12 -28 3 -8 -10 -77 -29 -153 -44 -173 -54 -281 -30 -318 9 -14 24 -25
33 -25 12 0 14 -3 7 -10 -15 -15 -59 4 -78 33 -34 51 -48 122 -53 269 -3 81
-2 172 1 202 l7 56 38 0 c21 0 60 -3 86 -7z m972 -15 c-3 -8 -6 -5 -6 6 -1 11
2 17 5 13 3 -3 4 -12 1 -19z m-677 -1 c0 -13 -172 -187 -221 -223 -64 -47 -67
-43 -9 12 44 41 74 78 152 184 18 25 33 35 52 35 14 0 26 -4 26 -8z m320 2 c0
-13 -169 -183 -197 -198 -18 -9 -14 2 23 66 24 43 49 93 55 111 10 31 12 32
65 32 31 0 54 -4 54 -11z m-154 -46 c-8 -15 -15 -25 -16 -21 0 12 23 58 27 54
3 -2 -2 -17 -11 -33z m489 -33 c-9 -28 -19 -50 -21 -48 -2 2 4 27 13 56 9 28
19 50 21 47 2 -2 -4 -27 -13 -55z m-894 19 c-5 -13 -10 -19 -10 -12 -1 15 10
45 15 40 3 -2 0 -15 -5 -28z m963 -105 c-37 -149 -69 -212 -133 -263 -87 -69
-211 -103 -241 -66 -13 15 -12 19 5 31 11 8 31 24 44 36 l24 23 -12 -22 c-10
-20 -9 -23 8 -23 12 0 35 20 57 48 52 65 54 67 54 59 0 -9 -90 -119 -109 -134
-9 -6 -13 -15 -8 -19 19 -20 109 93 192 241 39 69 143 225 151 225 1 0 -14
-61 -32 -136z m-364 107 c0 -15 -48 -69 -83 -93 -18 -12 -8 1 22 29 29 28 50
56 47 62 -4 6 -2 11 3 11 6 0 11 -4 11 -9z m-616 -65 c-3 -15 -8 -25 -11 -23
-2 3 -1 17 3 31 3 15 8 25 11 23 2 -3 1 -17 -3 -31z m90 12 c-42 -52 -81 -91
-106 -109 -26 -19 -26 -19 -21 0 3 11 11 17 18 15 7 -3 36 22 66 55 51 58 84
87 43 39z m286 -28 c-6 -11 -13 -20 -16 -20 -2 0 0 9 6 20 6 11 13 20 16 20 2
0 0 -9 -6 -20z m391 -17 l34 -38 -35 32 c-32 29 -37 31 -55 17 -24 -19 -63
-40 -53 -29 4 4 22 18 40 31 18 13 33 23 34 24 0 0 16 -17 35 -37z m105 -20
c-8 -15 -15 -25 -16 -21 0 12 23 58 27 54 3 -2 -2 -17 -11 -33z m-889 -5 c-3
-8 -6 -5 -6 6 -1 11 2 17 5 13 3 -3 4 -12 1 -19z m663 -3 c0 -6 -97 -55 -107
-55 -4 1 17 14 47 30 61 32 60 32 60 25z m-320 -30 c-14 -17 -36 -20 -44 -6
-4 5 2 7 13 4 10 -3 22 0 25 6 4 6 10 11 13 11 3 0 0 -7 -7 -15z m-265 -31
c-38 -34 -115 -80 -115 -69 0 2 17 13 38 24 20 11 52 33 71 50 19 17 37 31 40
31 3 -1 -12 -17 -34 -36z m133 29 c-10 -2 -28 -2 -40 0 -13 2 -5 4 17 4 22 1
32 -1 23 -4z m662 -1 c0 -5 -7 -17 -15 -28 -14 -18 -14 -17 -4 9 12 27 19 34
19 19z m-590 -32 c0 -12 -10 -17 -50 -23 l-35 -6 38 12 c30 10 35 15 25 25
-11 11 -10 12 5 7 9 -4 17 -11 17 -15z m248 3 c-10 -2 -26 -2 -35 0 -10 3 -2
5 17 5 19 0 27 -2 18 -5z m-341 -29 c-3 -3 -12 -4 -19 -1 -8 3 -5 6 6 6 11 1
17 -2 13 -5z m-40 -20 c-3 -3 -12 -4 -19 -1 -8 3 -5 6 6 6 11 1 17 -2 13 -5z
m673 -14 c-6 -11 -13 -20 -16 -20 -2 0 0 9 6 20 6 11 13 20 16 20 2 0 0 -9 -6
-20z m153 -38 c-3 -12 -9 -19 -14 -16 -5 3 -3 14 3 24 15 24 19 21 11 -8z
m-1588 -22 c-9 -41 -17 -33 -9 9 4 17 9 30 11 27 3 -2 2 -19 -2 -36z m1561
-62 c-15 -40 -15 -25 1 32 6 23 5 24 -13 10 -18 -14 -18 -14 -5 3 25 31 35 3
17 -45z m-1539 30 c-3 -8 -6 -5 -6 6 -1 11 2 17 5 13 3 -3 4 -12 1 -19z m378
-58 c13 -6 15 -9 5 -9 -8 0 -22 4 -30 9 -18 12 -2 12 25 0z m79 -26 c5 -14 4
-15 -9 -4 -17 14 -19 20 -6 20 5 0 12 -7 15 -16z m59 -73 c-2 -3 -16 8 -31 24
l-27 28 31 -24 c17 -13 30 -26 27 -28z m-587 24 c-11 -8 -25 -15 -30 -15 -6 1
0 7 14 15 32 19 40 18 16 0z m1543 -104 c-6 -18 -13 -30 -15 -28 -2 2 1 18 7
36 6 18 13 30 15 28 2 -2 -1 -18 -7 -36z m-322 -196 c0 -8 -4 -15 -9 -15 -10
0 -11 14 -1 23 9 10 10 9 10 -8z m-1556 -537 c-6 -45 -11 -103 -11 -130 0 -47
-1 -48 -31 -48 -30 0 -31 1 -25 33 11 56 71 247 74 236 2 -5 -1 -46 -7 -91z
m1764 -218 c-15 -41 -34 -80 -35 -69 0 4 7 23 15 43 8 20 13 36 11 36 -3 0
-38 -18 -78 -40 -40 -22 -77 -40 -83 -40 -5 0 28 21 75 46 47 25 89 50 95 55
15 15 15 11 0 -31z m-1781 -3 c-4 -13 -10 -14 -24 -7 -27 14 -34 12 -20 -5 7
-8 19 -15 26 -15 9 0 14 -11 14 -30 0 -35 -5 -36 -47 -10 -30 18 -31 21 -22
52 5 18 9 34 9 35 0 5 56 8 63 3 4 -4 5 -14 1 -23z m1583 -78 c-25 -14 -160
-60 -164 -55 -4 4 154 63 172 64 6 1 2 -3 -8 -9z m149 -36 c-8 -15 -15 -25
-16 -21 0 12 23 58 27 54 3 -2 -2 -17 -11 -33z m-408 -10 c-10 -2 -26 -2 -35
0 -10 3 -2 5 17 5 19 0 27 -2 18 -5z m79 -19 c-3 -3 -12 -4 -19 -1 -8 3 -5 6
6 6 11 1 17 -2 13 -5z m-1037 -82 c0 -9 -4 -10 -18 -1 -13 8 -17 20 -13 43 l4
31 13 -30 c7 -16 13 -36 14 -43z m31 -65 c30 -29 65 -59 78 -68 24 -15 24 -17
12 -60 -7 -25 -26 -66 -42 -92 l-30 -48 -51 3 c-32 2 -52 8 -54 16 -1 7 0 8 3
2 2 -5 27 -10 54 -10 l50 0 34 72 c41 86 43 100 11 118 -14 7 -46 35 -72 62
-25 27 -49 47 -52 44 -2 -3 -6 -36 -7 -73 -2 -61 -29 -152 -41 -140 -12 12 31
227 45 227 5 0 33 -24 62 -53z m649 -142 c10 -12 9 -15 -4 -15 -10 0 -15 4
-12 9 4 5 0 12 -6 14 -8 4 -9 6 -2 6 6 1 17 -6 24 -14z m-23 -57 c-3 -7 -5 -2
-5 12 0 14 2 19 5 13 2 -7 2 -19 0 -25z m-720 -20 c-3 -7 -5 -2 -5 12 0 14 2
19 5 13 2 -7 2 -19 0 -25z m703 8 c0 -2 -12 -11 -27 -20 l-28 -17 24 20 c23
21 31 25 31 17z"/>
<path d="M1300 1252 c0 -11 22 -32 32 -32 5 0 4 9 -2 20 -11 20 -30 28 -30 12z"/>
<path d="M1365 1190 c9 -15 45 -32 45 -22 0 5 -12 14 -26 20 -14 7 -23 8 -19
2z"/>
<path d="M1485 1120 c3 -5 14 -10 23 -10 15 0 15 2 2 10 -20 13 -33 13 -25 0z"/>
<path d="M1415 948 l-16 -33 20 25 c20 24 26 40 16 40 -2 0 -12 -15 -20 -32z"/>
<path d="M1461 942 c-17 -31 -13 -40 5 -14 9 13 14 26 11 29 -3 2 -10 -4 -16
-15z"/>
<path d="M1490 900 c-6 -11 -8 -20 -6 -20 3 0 10 9 16 20 6 11 8 20 6 20 -3 0
-10 -9 -16 -20z"/>
<path d="M510 865 c0 -20 22 -65 32 -65 11 0 10 25 -4 55 -12 27 -28 33 -28
10z"/>
<path d="M1695 1970 c-3 -6 1 -7 9 -4 18 7 21 14 7 14 -6 0 -13 -4 -16 -10z"/>
<path d="M2097 2365 c-9 -19 -15 -35 -13 -35 2 0 13 16 25 35 11 19 17 35 13
35 -5 0 -16 -16 -25 -35z"/>
<path d="M2371 1999 c-13 -41 -26 -80 -29 -88 -3 -9 -1 -12 6 -8 14 9 54 132
50 154 -2 9 -14 -17 -27 -58z"/>
<path d="M191 1564 c0 -11 3 -14 6 -6 3 7 2 16 -1 19 -3 4 -6 -2 -5 -13z"/>
<path d="M181 1524 c0 -11 3 -14 6 -6 3 7 2 16 -1 19 -3 4 -6 -2 -5 -13z"/>
<path d="M2370 578 c-12 -29 -24 -59 -28 -67 -4 -10 -1 -13 11 -8 29 11 19
-12 -14 -32 -21 -13 -47 -48 -76 -102 -60 -112 -163 -269 -214 -324 l-42 -45
45 0 c44 0 46 1 115 87 38 49 78 101 88 116 35 54 25 19 -25 -88 -27 -59 -50
-109 -50 -111 0 -3 34 -4 75 -2 l76 3 33 83 33 82 2 230 c1 127 0 230 -2 230
-2 0 -14 -24 -27 -52z"/>
</g>
</svg>
