<?xml version="1.0" standalone="no"?>
<!DOCTYPE svg PUBLIC "-//W3C//DTD SVG 20010904//EN"
 "http://www.w3.org/TR/2001/REC-SVG-20010904/DTD/svg10.dtd">
<svg version="1.0" xmlns="http://www.w3.org/2000/svg"
 width="266.000000pt" height="266.000000pt" viewBox="0 0 266.000000 266.000000"
 preserveAspectRatio="xMidYMid meet">
<metadata>
Created by potrace 1.11, written by Peter Selinger 2001-2013
</metadata>
<g transform="translate(0.000000,266.000000) scale(0.100000,-0.100000)"
fill="#000000" stroke="none">
<path d="M385 2646 c-145 -36 -276 -143 -338 -277 -48 -103 -47 -97 -46 -1044
0 -826 2 -895 19 -958 45 -170 193 -312 368 -353 90 -21 1801 -20 1891 2 176
41 324 191 367 374 11 43 14 245 14 941 0 966 1 940 -58 1059 -35 72 -142 179
-212 213 -118 57 -89 56 -1060 55 -677 0 -907 -3 -945 -12z"/>
</g>
</svg>
