<svg xmlns="http://www.w3.org/2000/svg" width="674" height="1167" viewBox="0 0 674 1167"><defs><style>.a{fill:#fff;}.b,.c,.d,.e{fill:#bdc3cc;stroke-linecap:round;}.b,.d,.e{stroke:#6f6f6f;}.b,.c,.e{stroke-miterlimit:10;}.c,.d,.e{stroke-linejoin:round;}.f{fill:#464646;}.f,.g{font-size:13px;font-family:STSongti-SC-Bold, Songti SC;font-weight:700;}.g{fill:#c33636;}.h,.i{stroke:none;}.i{fill:#6f6f6f;}.j{fill:none;}</style></defs><g transform="translate(776 -534)"><rect class="a" width="674" height="1167" rx="5" transform="translate(-776 534)"/><path class="b" d="M65,30V1073.63" transform="translate(-732 575)"/><g class="c" transform="translate(-732 575)"><path class="h" d="M 65 1077.761962890625 L 62.6180305480957 1072.998046875 L 64.77639007568359 1074.077270507812 L 65 1074.18896484375 L 65.22360992431641 1074.077270507812 L 67.38197326660156 1072.998046875 L 65 1077.761962890625 Z"/><path class="i" d="M 65 1076.643920898438 L 66.26393127441406 1074.116088867188 L 65.44721221923828 1074.5244140625 C 65.30644989013672 1074.594848632812 65.15322875976562 1074.630004882812 65 1074.630004882812 C 64.84677124023438 1074.630004882812 64.69355010986328 1074.594848632812 64.55278778076172 1074.5244140625 L 63.73606872558594 1074.116088867188 L 65 1076.643920898438 M 65 1078.880004882812 L 61.5 1071.880004882812 L 65 1073.630004882812 L 68.5 1071.880004882812 L 65 1078.880004882812 Z"/></g><g class="d" transform="translate(-732 575)"><rect class="h" width="130" height="30"/><rect class="j" x="0.5" y="0.5" width="129" height="29"/></g><path class="e" d="M375,30V1073.63" transform="translate(-732 575)"/><g class="c" transform="translate(-732 575)"><path class="h" d="M 375 1077.761962890625 L 372.6180419921875 1072.998046875 L 374.7763977050781 1074.077270507812 L 375 1074.18896484375 L 375.2236022949219 1074.077270507812 L 377.3819580078125 1072.998046875 L 375 1077.761962890625 Z"/><path class="i" d="M 375 1076.643920898438 L 376.263916015625 1074.116088867188 L 375.4472045898438 1074.5244140625 C 375.3064575195312 1074.594848632812 375.1532287597656 1074.630004882812 375 1074.630004882812 C 374.8467712402344 1074.630004882812 374.6935424804688 1074.594848632812 374.5527954101562 1074.5244140625 L 373.736083984375 1074.116088867188 L 375 1076.643920898438 M 375 1078.880004882812 L 371.5 1071.880004882812 L 375 1073.630004882812 L 378.5 1071.880004882812 L 375 1078.880004882812 Z"/></g><g class="d" transform="translate(-422 575)"><rect class="h" width="130" height="30"/><rect class="j" x="0.5" y="0.5" width="129" height="29"/></g><path class="b" d="M205,30V1073.63" transform="translate(-732 575)"/><g class="c" transform="translate(-732 575)"><path class="h" d="M 205 1077.761962890625 L 202.6180267333984 1072.998046875 L 204.7763824462891 1074.077270507812 L 205 1074.18896484375 L 205.2236175537109 1074.077270507812 L 207.3819732666016 1072.998046875 L 205 1077.761962890625 Z"/><path class="i" d="M 205 1076.643920898438 L 206.2639312744141 1074.116088867188 L 205.4472045898438 1074.5244140625 C 205.3064575195312 1074.594848632812 205.1532287597656 1074.630004882812 205 1074.630004882812 C 204.8467712402344 1074.630004882812 204.6935424804688 1074.594848632812 204.5527954101562 1074.5244140625 L 203.7360687255859 1074.116088867188 L 205 1076.643920898438 M 205 1078.880004882812 L 201.5 1071.880004882812 L 205 1073.630004882812 L 208.5 1071.880004882812 L 205 1078.880004882812 Z"/></g><g class="d" transform="translate(-592 575)"><rect class="h" width="130" height="30"/><rect class="j" x="0.5" y="0.5" width="129" height="29"/></g><path class="e" d="M515,620v453.63" transform="translate(-732 575)"/><g class="c" transform="translate(-732 575)"><path class="h" d="M 515 1077.761962890625 L 512.6180419921875 1072.998046875 L 514.7763671875 1074.077270507812 L 515 1074.18896484375 L 515.2236328125 1074.077270507812 L 517.3819580078125 1072.998046875 L 515 1077.761962890625 Z"/><path class="i" d="M 515 1076.643920898438 L 516.263916015625 1074.116088867188 L 515.4472045898438 1074.5244140625 C 515.3064575195312 1074.594848632812 515.1531982421875 1074.630004882812 515 1074.630004882812 C 514.8468017578125 1074.630004882812 514.6935424804688 1074.594848632812 514.5527954101562 1074.5244140625 L 513.736083984375 1074.116088867188 L 515 1076.643920898438 M 515 1078.880004882812 L 511.5 1071.880004882812 L 515 1073.630004882812 L 518.5 1071.880004882812 L 515 1078.880004882812 Z"/></g><g class="d" transform="translate(-282 575)"><rect class="h" width="130" height="30"/><rect class="j" x="0.5" y="0.5" width="129" height="29"/></g><path class="b" d="M70,100H191.88" transform="translate(-732 575)"/><g class="c" transform="translate(-732 575)"><path class="h" d="M 192.3800048828125 102.6909866333008 L 192.3800048828125 97.30901336669922 L 197.7619781494141 100 L 192.3800048828125 102.6909866333008 Z"/><path class="i" d="M 192.8800048828125 98.11803436279297 L 192.8800048828125 101.881965637207 L 196.6439361572266 100 L 192.8800048828125 98.11803436279297 M 191.8800048828125 96.5 L 198.8800048828125 100 L 191.8800048828125 103.5 L 191.8800048828125 96.5 Z"/></g><path class="b" d="M210,140H361.88" transform="translate(-732 575)"/><g class="c" transform="translate(-732 575)"><path class="h" d="M 362.3800048828125 142.6909790039062 L 362.3800048828125 137.3090209960938 L 367.761962890625 140 L 362.3800048828125 142.6909790039062 Z"/><path class="i" d="M 362.8800048828125 138.1180419921875 L 362.8800048828125 141.8819580078125 L 366.6439208984375 140 L 362.8800048828125 138.1180419921875 M 361.8800048828125 136.5 L 368.8800048828125 140 L 361.8800048828125 143.5 L 361.8800048828125 136.5 Z"/></g><path class="b" d="M388.12,180H501.88" transform="translate(-732 575)"/><g class="c" transform="translate(-732 575)"><path class="h" d="M 387.6199951171875 182.6909790039062 L 382.238037109375 180 L 387.6199951171875 177.3090209960938 L 387.6199951171875 182.6909790039062 Z"/><path class="i" d="M 387.1199951171875 178.1180419921875 L 383.3560791015625 180 L 387.1199951171875 181.8819580078125 L 387.1199951171875 178.1180419921875 M 388.1199951171875 176.5 L 388.1199951171875 183.5 L 381.1199951171875 180 L 388.1199951171875 176.5 Z"/></g><g class="c" transform="translate(-732 575)"><path class="h" d="M 502.3800048828125 182.6909790039062 L 502.3800048828125 177.3090209960938 L 507.761962890625 180 L 502.3800048828125 182.6909790039062 Z"/><path class="i" d="M 502.8800048828125 178.1180419921875 L 502.8800048828125 181.8819580078125 L 506.6439208984375 180 L 502.8800048828125 178.1180419921875 M 501.8800048828125 176.5 L 508.8800048828125 180 L 501.8800048828125 183.5 L 501.8800048828125 176.5 Z"/></g><path class="b" d="M370,210H218.12" transform="translate(-732 575)"/><g class="c" transform="translate(-732 575)"><path class="h" d="M 217.6199951171875 212.6909790039062 L 212.2380218505859 210 L 217.6199951171875 207.3090209960938 L 217.6199951171875 212.6909790039062 Z"/><path class="i" d="M 217.1199951171875 208.1180419921875 L 213.3560638427734 210 L 217.1199951171875 211.8819580078125 L 217.1199951171875 208.1180419921875 M 218.1199951171875 206.5 L 218.1199951171875 213.5 L 211.1199951171875 210 L 218.1199951171875 206.5 Z"/></g><path class="b" d="M210,270H361.88" transform="translate(-732 575)"/><g class="c" transform="translate(-732 575)"><path class="h" d="M 362.3800048828125 272.6909790039062 L 362.3800048828125 267.3090209960938 L 367.761962890625 270 L 362.3800048828125 272.6909790039062 Z"/><path class="i" d="M 362.8800048828125 268.1180419921875 L 362.8800048828125 271.8819580078125 L 366.6439208984375 270 L 362.8800048828125 268.1180419921875 M 361.8800048828125 266.5 L 368.8800048828125 270 L 361.8800048828125 273.5 L 361.8800048828125 266.5 Z"/></g><path class="b" d="M70,300H191.88" transform="translate(-732 575)"/><g class="c" transform="translate(-732 575)"><path class="h" d="M 192.3800048828125 302.6909790039062 L 192.3800048828125 297.3090209960938 L 197.7619781494141 300 L 192.3800048828125 302.6909790039062 Z"/><path class="i" d="M 192.8800048828125 298.1180419921875 L 192.8800048828125 301.8819580078125 L 196.6439361572266 300 L 192.8800048828125 298.1180419921875 M 191.8800048828125 296.5 L 198.8800048828125 300 L 191.8800048828125 303.5 L 191.8800048828125 296.5 Z"/></g><path class="b" d="M210,340H361.88" transform="translate(-732 575)"/><g class="c" transform="translate(-732 575)"><path class="h" d="M 362.3800048828125 342.6909790039062 L 362.3800048828125 337.3090209960938 L 367.761962890625 340 L 362.3800048828125 342.6909790039062 Z"/><path class="i" d="M 362.8800048828125 338.1180419921875 L 362.8800048828125 341.8819580078125 L 366.6439208984375 340 L 362.8800048828125 338.1180419921875 M 361.8800048828125 336.5 L 368.8800048828125 340 L 361.8800048828125 343.5 L 361.8800048828125 336.5 Z"/></g><path class="b" d="M380,370H501.88" transform="translate(-732 575)"/><g class="c" transform="translate(-732 575)"><path class="h" d="M 502.3800048828125 372.6909790039062 L 502.3800048828125 367.3090209960938 L 507.761962890625 370 L 502.3800048828125 372.6909790039062 Z"/><path class="i" d="M 502.8800048828125 368.1180419921875 L 502.8800048828125 371.8819580078125 L 506.6439208984375 370 L 502.8800048828125 368.1180419921875 M 501.8800048828125 366.5 L 508.8800048828125 370 L 501.8800048828125 373.5 L 501.8800048828125 366.5 Z"/></g><path class="b" d="M510,420H388.12" transform="translate(-732 575)"/><g class="c" transform="translate(-732 575)"><path class="h" d="M 387.6199951171875 422.6909790039062 L 382.238037109375 420 L 387.6199951171875 417.3090209960938 L 387.6199951171875 422.6909790039062 Z"/><path class="i" d="M 387.1199951171875 418.1180419921875 L 383.3560791015625 420 L 387.1199951171875 421.8819580078125 L 387.1199951171875 418.1180419921875 M 388.1199951171875 416.5 L 388.1199951171875 423.5 L 381.1199951171875 420 L 388.1199951171875 416.5 Z"/></g><path class="b" d="M370,460H218.12" transform="translate(-732 575)"/><g class="c" transform="translate(-732 575)"><path class="h" d="M 217.6199951171875 462.6909790039062 L 212.2380218505859 460 L 217.6199951171875 457.3090209960938 L 217.6199951171875 462.6909790039062 Z"/><path class="i" d="M 217.1199951171875 458.1180419921875 L 213.3560638427734 460 L 217.1199951171875 461.8819580078125 L 217.1199951171875 458.1180419921875 M 218.1199951171875 456.5 L 218.1199951171875 463.5 L 211.1199951171875 460 L 218.1199951171875 456.5 Z"/></g><path class="b" d="M200,490H78.12" transform="translate(-732 575)"/><g class="c" transform="translate(-732 575)"><path class="h" d="M 77.62000274658203 492.6909790039062 L 72.23802947998047 490 L 77.62000274658203 487.3090209960938 L 77.62000274658203 492.6909790039062 Z"/><path class="i" d="M 77.12000274658203 488.1180419921875 L 73.35607147216797 490 L 77.12000274658203 491.8819580078125 L 77.12000274658203 488.1180419921875 M 78.12000274658203 486.5 L 78.12000274658203 493.5 L 71.12000274658203 490 L 78.12000274658203 486.5 Z"/></g><path class="b" d="M510,690H388.12" transform="translate(-732 575)"/><g class="c" transform="translate(-732 575)"><path class="h" d="M 387.6199951171875 692.6909790039062 L 382.238037109375 690 L 387.6199951171875 687.3090209960938 L 387.6199951171875 692.6909790039062 Z"/><path class="i" d="M 387.1199951171875 688.1180419921875 L 383.3560791015625 690 L 387.1199951171875 691.8819580078125 L 387.1199951171875 688.1180419921875 M 388.1199951171875 686.5 L 388.1199951171875 693.5 L 381.1199951171875 690 L 388.1199951171875 686.5 Z"/></g><path class="b" d="M370,720H218.12" transform="translate(-732 575)"/><g class="c" transform="translate(-732 575)"><path class="h" d="M 217.6199951171875 722.6909790039062 L 212.2380218505859 720 L 217.6199951171875 717.3090209960938 L 217.6199951171875 722.6909790039062 Z"/><path class="i" d="M 217.1199951171875 718.1180419921875 L 213.3560638427734 720 L 217.1199951171875 721.8819580078125 L 217.1199951171875 718.1180419921875 M 218.1199951171875 716.5 L 218.1199951171875 723.5 L 211.1199951171875 720 L 218.1199951171875 716.5 Z"/></g><path class="b" d="M210,760H361.88" transform="translate(-732 575)"/><g class="c" transform="translate(-732 575)"><path class="h" d="M 362.3800048828125 762.6909790039062 L 362.3800048828125 757.3090209960938 L 367.761962890625 760 L 362.3800048828125 762.6909790039062 Z"/><path class="i" d="M 362.8800048828125 758.1180419921875 L 362.8800048828125 761.8819580078125 L 366.6439208984375 760 L 362.8800048828125 758.1180419921875 M 361.8800048828125 756.5 L 368.8800048828125 760 L 361.8800048828125 763.5 L 361.8800048828125 756.5 Z"/></g><g class="d" transform="translate(-552 1375)"><ellipse class="h" cx="110" cy="15" rx="110" ry="15"/><ellipse class="j" cx="110" cy="15" rx="109.5" ry="14.5"/></g><path class="b" d="M70,870H191.88" transform="translate(-732 575)"/><g class="c" transform="translate(-732 575)"><path class="h" d="M 192.3800048828125 872.6909790039062 L 192.3800048828125 867.3090209960938 L 197.7619781494141 870 L 192.3800048828125 872.6909790039062 Z"/><path class="i" d="M 192.8800048828125 868.1180419921875 L 192.8800048828125 871.8819580078125 L 196.6439361572266 870 L 192.8800048828125 868.1180419921875 M 191.8800048828125 866.5 L 198.8800048828125 870 L 191.8800048828125 873.5 L 191.8800048828125 866.5 Z"/></g><g class="d" transform="translate(-272 1195)"><rect class="h" width="110" height="30"/><rect class="j" x="0.5" y="0.5" width="109" height="29"/></g><path class="b" d="M515,30V613.63" transform="translate(-732 575)"/><g class="c" transform="translate(-732 575)"><path class="h" d="M 515 617.761962890625 L 512.6180419921875 612.998046875 L 514.7763671875 614.0772094726562 L 515 614.1890258789062 L 515.2236328125 614.0772094726562 L 517.3819580078125 612.998046875 L 515 617.761962890625 Z"/><path class="i" d="M 515 616.6439208984375 L 516.263916015625 614.1160888671875 L 515.4472045898438 614.5244140625 C 515.3064575195312 614.5947875976562 515.1531982421875 614.6300048828125 515 614.6300048828125 C 514.8468017578125 614.6300048828125 514.6935424804688 614.5947875976562 514.5527954101562 614.5244140625 L 513.736083984375 614.1160888671875 L 515 616.6439208984375 M 515 618.8800048828125 L 511.5 611.8800048828125 L 515 613.6300048828125 L 518.5 611.8800048828125 L 515 618.8800048828125 Z"/></g><path class="b" d="M210,910H361.88" transform="translate(-732 575)"/><g class="c" transform="translate(-732 575)"><path class="h" d="M 362.3800048828125 912.6909790039062 L 362.3800048828125 907.3090209960938 L 367.761962890625 910 L 362.3800048828125 912.6909790039062 Z"/><path class="i" d="M 362.8800048828125 908.1180419921875 L 362.8800048828125 911.8819580078125 L 366.6439208984375 910 L 362.8800048828125 908.1180419921875 M 361.8800048828125 906.5 L 368.8800048828125 910 L 361.8800048828125 913.5 L 361.8800048828125 906.5 Z"/></g><path class="b" d="M370,960H218.12" transform="translate(-732 575)"/><g class="c" transform="translate(-732 575)"><path class="h" d="M 217.6199951171875 962.6909790039062 L 212.2380218505859 960 L 217.6199951171875 957.3090209960938 L 217.6199951171875 962.6909790039062 Z"/><path class="i" d="M 217.1199951171875 958.1180419921875 L 213.3560638427734 960 L 217.1199951171875 961.8819580078125 L 217.1199951171875 958.1180419921875 M 218.1199951171875 956.5 L 218.1199951171875 963.5 L 211.1199951171875 960 L 218.1199951171875 956.5 Z"/></g><path class="b" d="M200,1000H78.12" transform="translate(-732 575)"/><g class="c" transform="translate(-732 575)"><path class="h" d="M 77.62000274658203 1002.690979003906 L 72.23802947998047 1000 L 77.62000274658203 997.3090209960938 L 77.62000274658203 1002.690979003906 Z"/><path class="i" d="M 77.12000274658203 998.1180419921875 L 73.35607147216797 1000 L 77.12000274658203 1001.881958007812 L 77.12000274658203 998.1180419921875 M 78.12000274658203 996.5 L 78.12000274658203 1003.5 L 71.12000274658203 1000 L 78.12000274658203 996.5 Z"/></g><g class="d" transform="translate(-727 1605)"><rect class="h" width="120" height="30"/><rect class="j" x="0.5" y="0.5" width="119" height="29"/></g><g class="d" transform="translate(-692 1095)"><ellipse class="h" cx="250" cy="35" rx="250" ry="35"/><ellipse class="j" cx="250" cy="35" rx="249.5" ry="34.5"/></g><text class="f" transform="translate(-716 595)"><tspan x="0" y="0">Client Application</tspan></text><text class="f" transform="translate(-562 595)"><tspan x="0" y="0">Client Kernel</tspan></text><text class="f" transform="translate(-393 595)"><tspan x="0" y="0">Server Kernel</tspan></text><text class="f" transform="translate(-266 595)"><tspan x="0" y="0">Server Application</tspan></text><text class="f" transform="translate(-620 668)"><tspan x="0" y="0">Connect()</tspan></text><text class="f" transform="translate(-458 708)"><tspan x="0" y="0">SYN</tspan></text><text class="f" transform="translate(-310 748)"><tspan x="0" y="0">Accept()</tspan></text><text class="f" transform="translate(-478 778)"><tspan x="0" y="0">[SYN, ACK]</tspan></text><text class="f" transform="translate(-460 838)"><tspan x="0" y="0">ACK</tspan></text><text class="f" transform="translate(-618 868)"><tspan x="0" y="0">Write()</tspan></text><text class="f" transform="translate(-468 908)"><tspan x="0" y="0">Request</tspan></text><text class="f" transform="translate(-470 1028)"><tspan x="0" y="0">Response</tspan></text><text class="f" transform="translate(-307 938)"><tspan x="0" y="0">Read()</tspan></text><text class="f" transform="translate(-307 988)"><tspan x="0" y="0">Write()</tspan></text><text class="f" transform="translate(-616 1058)"><tspan x="0" y="0">Read()</tspan></text><text class="f" transform="translate(-517 1135)"><tspan x="0" y="0">放入连接池，过了一段时间</tspan></text><text class="f" transform="translate(-243 1215)"><tspan x="0" y="0">Timeout()</tspan></text><text class="f" transform="translate(-301 1258)"><tspan x="0" y="0">Close()</tspan></text><text class="f" transform="translate(-473 1288)"><tspan x="0" y="0">[FIN, ACK]</tspan></text><text class="f" transform="translate(-455 1328)"><tspan x="0" y="0">ACK</tspan></text><text class="f" transform="translate(-487 1395)"><tspan x="0" y="0">进入半关闭状态</tspan></text><text class="f" transform="translate(-612 1438)"><tspan x="0" y="0">Write()</tspan></text><text class="f" transform="translate(-463 1478)"><tspan x="0" y="0">Request</tspan></text><text class="g" transform="translate(-453 1528)"><tspan x="0" y="0">RST</tspan></text><text class="g" transform="translate(-610 1568)"><tspan x="0" y="0">Read()</tspan></text><text class="g" transform="translate(-680 1625)"><tspan x="0" y="0">EOF</tspan></text></g></svg>